<svg xmlns="http://www.w3.org/2000/svg" style="display: none;">
  <symbol id="icon-home" viewBox="0 0 24 24">
    <path d="M12 3l10 9h-3v9h-6v-6h-4v6H5v-9H2l10-9z"/>
  </symbol>
  <symbol id="icon-user" viewBox="0 0 24 24">
    <path d="M12 12c2.21 0 4-1.79 4-4s-1.79-4-4-4-4 1.79-4 4 1.79 4 4 4zm0 2c-3.31 0-10 1.67-10 5v2h20v-2c0-3.33-6.69-5-10-5z"/>
  </symbol>
  <symbol id="icon-settings" viewBox="0 0 24 24">
    <path d="M12 8c-2.21 0-4 1.79-4 4s1.79 4 4 4 4-1.79 4-4-1.79-4-4-4zm0 10c-4.41 0-8-2.69-8-6s3.59-6 8-6 8 2.69 8 6-3.59 6-8 6zm0-16c-1.1 0-2 .9-2 2s.9 2 2 2 2-.9 2-2-.9-2-2-2z"/>
  </symbol>
  <symbol id="icon-download" viewBox="0 0 24 24">
    <path d="M12 15l-4-4h3V3h2v8h3l-4 4zm-8 2h16v2H4v-2z"/>
  </symbol>
  <symbol id="icon-external-link" viewBox="0 0 24 24">
    <path d="M15 3h4v4h-2V5.83L7.41 12.41 6 11l8-8zm-3 18H5v-2h7v2z"/>
  </symbol>
</svg>